<svg width="288" height="160" viewBox="0 0 288 160" fill="none" xmlns="http://www.w3.org/2000/svg">
<g clip-path="url(#clip0_654_4821)">
<path d="M-58 16C-58 7.16345 -50.8366 0 -42 0H342C350.837 0 358 7.16344 358 16V206H-58V16Z" fill="#F2E7AA"/>
<path opacity="0.7" d="M204 161C204 148.438 211.035 134.756 220.387 125.873C229.739 116.99 242.423 112 255.648 112C268.874 112 281.558 116.99 290.91 125.873C300.262 134.756 307 148.438 307 161L255.648 161L204 161Z" fill="#9E4F39"/>
<path opacity="0.7" d="M161 85C161 104.485 150.14 125.704 135.704 139.482C121.267 153.26 101.687 161 81.2709 161C60.8546 161 41.2745 153.26 26.8379 139.482C12.4014 125.704 2 104.485 2 85L81.2709 85L161 85Z" fill="#EECFD9"/>
<path opacity="0.7" d="M133 85C133 38.8523 156.768 -11.4052 188.365 -44.0365C219.962 -76.6679 262.817 -95 307.501 -95C352.186 -95 395.041 -76.6679 426.638 -44.0365C458.235 -11.4052 481 38.8523 481 85L307.501 85L133 85Z" fill="#FAF8ED"/>
<ellipse opacity="0.7" cx="25.5" cy="62" rx="23.5" ry="23" fill="#3E81C5"/>
</g>
<defs>
<clipPath id="clip0_654_4821">
<path d="M0 16C0 7.16345 7.16344 0 16 0H272C280.837 0 288 7.16344 288 16V160H0V16Z" fill="white"/>
</clipPath>
</defs>
</svg>
