<svg width="288" height="160" viewBox="0 0 288 160" fill="none" xmlns="http://www.w3.org/2000/svg">
<g clip-path="url(#clip0_657_24)">
<path d="M0 16C0 7.16345 7.16344 0 16 0H400C408.837 0 416 7.16344 416 16V206H0V16Z" fill="#F2E7AA"/>
<g clip-path="url(#clip1_657_24)">
<g opacity="0.7">
<path d="M122 -16C139.434 -16 158.42 -7.12106 170.747 4.68238C183.075 16.4858 190 32.4947 190 49.1873C190 65.8799 183.075 81.8888 170.747 93.6922C158.42 105.496 139.434 114 122 114L122 49.1873L122 -16Z" fill="#3E81C5"/>
<path d="M122 267C89.4402 267 53.9808 250.335 30.9576 228.181C7.93434 206.027 -4.99999 175.979 -5 144.648C-5 113.318 7.93431 83.2702 30.9575 61.1161C53.9808 38.9619 89.4402 23 122 23L122 144.648L122 267Z" fill="#FAF8ED"/>
<path d="M287.999 49.6943C287.999 64.6064 281.288 80.8464 272.367 91.3909C263.445 101.935 251.345 107.859 238.728 107.859C226.111 107.859 214.011 101.935 205.09 91.3909C196.168 80.8465 189.74 64.6064 189.74 49.6943L238.728 49.6943L287.999 49.6943Z" fill="#9E4F39"/>
<path d="M143.436 159.812C143.436 145.044 151.728 128.962 162.752 118.52C173.776 108.078 188.727 102.212 204.317 102.212C219.907 102.212 234.858 108.078 245.882 118.52C256.905 128.962 264.848 145.044 264.848 159.812L204.317 159.812L143.436 159.812Z" fill="#EECFD9"/>
</g>
</g>
</g>
<defs>
<clipPath id="clip0_657_24">
<path d="M0 16C0 7.16345 7.16344 0 16 0H272C280.837 0 288 7.16344 288 16V160H0V16Z" fill="white"/>
</clipPath>
<clipPath id="clip1_657_24">
<rect width="288" height="206" fill="white"/>
</clipPath>
</defs>
</svg>
