<svg fill="none" xmlns="http://www.w3.org/2000/svg" viewBox="0 0 288 160">
    <g clip-path="url(#a)">
        <path d="M-58 16c0-8.837 7.163-16 16-16h384c8.837 0 16 7.163 16 16v190H-58V16Z" fill="#F2E7AA" />
        <path opacity=".7" d="M204 161c0-12.562 7.035-26.244 16.387-35.127C229.739 116.99 242.423 112 255.648 112c13.226 0 25.91 4.99 35.262 13.873S307 148.438 307 161H204Z" fill="#9E4F39" />
        <path opacity=".7" d="M161 85c0 19.485-10.86 40.704-25.296 54.482C121.267 153.26 101.687 161 81.271 161c-20.416 0-39.996-7.74-54.433-21.518C12.4 125.704 2 104.485 2 85h159Z" fill="#EECFD9" />
        <path opacity=".7" d="M133 85c0-46.148 23.768-96.405 55.365-129.036C219.962-76.668 262.817-95 307.501-95c44.685 0 87.54 18.332 119.137 50.964C458.235-11.406 481 38.852 481 85H133Z" fill="#FAF8ED" />
        <ellipse opacity=".7" cx="25.5" cy="62" rx="23.5" ry="23" fill="#3E81C5" />
    </g>
    <defs>
        <clipPath id="a">
            <path d="M0 16C0 7.163 7.163 0 16 0h256c8.837 0 16 7.163 16 16v144H0V16Z" fill="#fff" />
        </clipPath>
    </defs>
</svg>
