<svg width="818" height="700" viewBox="0 0 818 700" fill="none" xmlns="http://www.w3.org/2000/svg">
<g clip-path="url(#clip0_822_10673)">
<path fill-rule="evenodd" clip-rule="evenodd" d="M472.729 845.432L502.971 705.211L504.627 697.529L496.977 695.735L394.699 671.752L401.342 653.084C473.976 621.698 527.674 552.65 535.487 468.335C546.872 345.454 456.481 236.679 333.593 225.378C285.235 220.931 239.05 232.242 200.123 255.084L148.36 257.062L189.071 151.277L192.336 142.794L183.506 140.633L38.1013 105.05L38.3465 103.614L38.0412 103.562C65.8426 80.9355 96.9138 61.4028 130.977 45.7168C349.194 -54.7729 607.558 40.6644 708.047 258.882C808.537 477.1 713.1 735.463 494.882 835.953C487.541 839.333 480.154 842.492 472.729 845.432ZM454.937 852.036L485.674 709.519L382.336 685.287L373.627 683.245L376.626 674.816L381.725 660.486C353.744 669.563 323.504 673.234 292.362 670.37C169.474 659.07 79.083 550.294 90.4686 427.413C96.3743 363.675 128.502 308.662 175.21 272.048L136.839 273.513L124.707 273.977L129.067 262.646L170.874 154.014L21.7384 117.518C-116.124 241.605 -163.852 445.452 -82.1886 622.787C12.2302 827.822 246.024 924.463 454.937 852.036ZM175.636 272.031C128.833 308.604 96.6281 363.646 90.7176 427.436C79.3447 550.179 169.634 658.833 292.385 670.121C323.56 672.988 353.83 669.299 381.831 660.189L390.782 635.033C361.216 647.389 328.287 652.899 294.164 649.761C182.687 639.51 100.69 540.835 111.018 429.364C117.449 359.954 158.162 301.948 214.883 270.532L175.636 272.031ZM215.439 270.511C158.561 301.832 117.707 359.885 111.267 429.387C100.951 540.72 182.848 639.274 294.187 649.512C328.348 652.654 361.312 647.116 390.895 634.715L436.349 506.976L418.606 506.127C406.601 527.946 387.758 546.254 363.401 557.471C302.871 585.345 231.205 558.872 203.331 498.342C202.024 495.506 200.837 492.645 199.768 489.765L161.601 485.449L131.414 482.036L159.367 470.139L192.512 456.032C189.694 414.335 208.835 373.228 243.984 348.822L278.422 268.106L215.439 270.511ZM266.668 336.429L298.094 262.769L303.05 251.153L290.431 251.635L258.701 252.847C281.743 246.432 306.317 244.019 331.544 246.339C442.883 256.577 524.779 355.131 514.464 466.464C508.067 535.498 467.72 593.235 411.44 624.703L455.037 502.182L458.651 492.024L447.882 491.509L425.828 490.454C436.822 461.303 436.59 427.935 422.529 397.401C412.891 376.471 398.017 359.613 380.178 347.666L390.934 335.878L368.205 339.605L366.707 339.851C336.407 324.79 300.059 322.541 266.668 336.429ZM194.772 472.459L193.586 472.964L194.911 473.114C194.864 472.896 194.818 472.677 194.772 472.459ZM411.313 625.06C467.792 593.585 508.299 535.707 514.713 466.487C525.041 355.016 443.044 256.341 331.567 246.09C305.943 243.733 280.992 246.254 257.633 252.888L200.652 255.064C239.451 232.405 285.432 221.201 333.57 225.627C456.321 236.915 546.61 345.569 535.238 468.313C527.442 552.45 473.901 621.368 401.456 652.762L411.313 625.06Z" fill="black"/>
</g>
<defs>
<clipPath id="clip0_822_10673">
<rect width="818" height="700" fill="white"/>
</clipPath>
</defs>
</svg>
