<svg fill="none" xmlns="http://www.w3.org/2000/svg" viewBox="0 0 288 160">
    <g clip-path="url(#a)">
        <path d="M0 16C0 7.163 7.163 0 16 0h384c8.837 0 16 7.163 16 16v190H0V16Z" fill="#F2E7AA" />
        <path opacity=".7" d="M0 80c0-20.254 13.796-42.311 32.137-56.633C50.478 9.046 75.353 1 101.291 1c25.938 0 50.813 8.046 69.154 22.367C188.786 37.69 202 59.747 202 80H0Z" fill="#3E81C5" />
        <path opacity=".7" d="M127 200c0-19.997 11.201-41.776 26.092-55.916 14.89-14.14 35.086-22.084 56.144-22.084 21.059 0 41.254 7.944 56.145 22.084C280.271 158.224 291 180.003 291 200H127Z" fill="#A5A14C" />
        <path opacity=".7" d="M202-5a86 86 0 1 1 0 172V-5Z" fill="#9E4F39" />
        <circle opacity=".7" cx="60.5" cy="127.5" r="24.5" fill="#FAF8ED" />
        <circle opacity=".7" cx="32.5" cy="127.5" r="24.5" fill="#EECFD9" />
    </g>
    <defs>
        <clipPath id="a">
            <path d="M0 16C0 7.163 7.163 0 16 0h256c8.837 0 16 7.163 16 16v144H0V16Z" fill="#fff" />
        </clipPath>
    </defs>
</svg>
