<svg fill="none" xmlns="http://www.w3.org/2000/svg" viewBox="0 0 288 160">
    <g clip-path="url(#a)">
        <path d="M0 16C0 7.163 7.163 0 16 0h384c8.837 0 16 7.163 16 16v190H0V16Z" fill="#F2E7AA" />
        <g opacity=".7" clip-path="url(#b)">
            <path d="M122-16c17.434 0 36.42 8.879 48.747 20.682C183.075 16.486 190 32.495 190 49.187c0 16.693-6.925 32.702-19.253 44.505C158.42 105.496 139.434 114 122 114V-16Z" fill="#3E81C5" />
            <path d="M122 267c-32.56 0-68.02-16.665-91.042-38.819C7.934 206.027-5 175.979-5 144.648c0-31.33 12.934-61.378 35.957-83.532C53.981 38.962 89.44 23 122 23v244Z" fill="#FAF8ED" />
            <path d="M287.999 49.694c0 14.912-6.711 31.152-15.632 41.697-8.922 10.544-21.022 16.468-33.639 16.468-12.617 0-24.717-5.924-33.638-16.468-8.922-10.544-15.35-26.785-15.35-41.697h98.259Z" fill="#9E4F39" />
            <path d="M143.436 159.812c0-14.768 8.292-30.85 19.316-41.292s25.975-16.308 41.565-16.308c15.59 0 30.541 5.866 41.565 16.308 11.023 10.442 18.966 26.524 18.966 41.292H143.436Z" fill="#EECFD9" />
        </g>
    </g>
    <defs>
        <clipPath id="a">
            <path d="M0 16C0 7.163 7.163 0 16 0h256c8.837 0 16 7.163 16 16v144H0V16Z" fill="#fff" />
        </clipPath>
        <clipPath id="b">
            <path fill="#fff" d="M0 0h288v206H0z" />
        </clipPath>
    </defs>
</svg>
